<svg width="18" height="15" viewBox="0 0 18 15" fill="none" xmlns="http://www.w3.org/2000/svg">
<path d="M12.7732 5.64793L10.3087 2.88856L10.3085 2.88831C9.75079 2.26079 9.75078 1.24081 10.3084 0.613278C10.8624 -0.0044508 11.745 -0.00442644 12.299 0.613349C12.299 0.613385 12.2991 0.61342 12.2991 0.613456L17.4278 6.3624L17.4278 6.36248L17.4319 6.36677C17.7074 6.65192 17.85 7.0449 17.85 7.48905C17.85 7.9324 17.7078 8.32078 17.431 8.61225L17.4309 8.6122L17.4277 8.61591L12.2987 14.387C12.2987 14.387 12.2987 14.387 12.2987 14.387C11.7498 15.0043 10.8627 15.0043 10.3138 14.387C9.75581 13.7594 9.75581 12.739 10.3138 12.1114L12.7784 9.35207L13.0016 9.10215H12.6665L1.56989 9.10215C0.798537 9.10215 0.15 8.4023 0.15 7.5C0.15 6.59737 0.798836 5.89786 1.56477 5.89786L12.6614 5.89786H12.9965L12.7732 5.64793Z" fill="#1B2535" stroke="white" stroke-width="0.3"/>
</svg>
