<svg width="16" height="16" viewBox="0 0 16 16" fill="none" xmlns="http://www.w3.org/2000/svg">
<rect width="16" height="12.3636" rx="2" fill="white"/>
<rect y="13.8184" width="16" height="2.18182" rx="1.09091" fill="white"/>
<mask id="path-3-outside-1_1064_38" maskUnits="userSpaceOnUse" x="1.54883" y="0.637695" width="13" height="10" fill="black">
<rect fill="white" x="1.54883" y="0.637695" width="13" height="10"/>
<path fill-rule="evenodd" clip-rule="evenodd" d="M7.6845 1.6377C7.45484 1.6377 7.25927 1.76607 7.18551 1.94567L7.18089 1.94531L5.63861 6.47414H3.13014C3.11338 6.47273 3.09639 6.47201 3.07921 6.47201C2.78629 6.47201 2.54883 6.68084 2.54883 6.93845C2.54883 7.18838 2.77236 7.3924 3.0532 7.40433V7.40583H6.42728L7.49028 3.85086L8.1503 9.54216C8.15519 9.79605 8.39074 10.0005 8.68061 10.0005C8.92164 10.0005 9.12512 9.85915 9.18965 9.66553L10.0554 7.40583H13.6479V7.40488C13.6479 7.40488 13.6479 7.40488 13.648 7.40488C13.9409 7.40488 14.1783 7.19605 14.1783 6.93845C14.1783 6.68084 13.9409 6.47201 13.648 6.47201C13.6308 6.47201 13.6138 6.47273 13.597 6.47414H9.29434L8.79682 8.39573L8.21449 2.02474L8.20711 2.02417C8.164 1.80466 7.94642 1.6377 7.6845 1.6377Z"/>
</mask>
<path fill-rule="evenodd" clip-rule="evenodd" d="M7.6845 1.6377C7.45484 1.6377 7.25927 1.76607 7.18551 1.94567L7.18089 1.94531L5.63861 6.47414H3.13014C3.11338 6.47273 3.09639 6.47201 3.07921 6.47201C2.78629 6.47201 2.54883 6.68084 2.54883 6.93845C2.54883 7.18838 2.77236 7.3924 3.0532 7.40433V7.40583H6.42728L7.49028 3.85086L8.1503 9.54216C8.15519 9.79605 8.39074 10.0005 8.68061 10.0005C8.92164 10.0005 9.12512 9.85915 9.18965 9.66553L10.0554 7.40583H13.6479V7.40488C13.6479 7.40488 13.6479 7.40488 13.648 7.40488C13.9409 7.40488 14.1783 7.19605 14.1783 6.93845C14.1783 6.68084 13.9409 6.47201 13.648 6.47201C13.6308 6.47201 13.6138 6.47273 13.597 6.47414H9.29434L8.79682 8.39573L8.21449 2.02474L8.20711 2.02417C8.164 1.80466 7.94642 1.6377 7.6845 1.6377Z" fill="#1B2535"/>
<path d="M7.18551 1.94567L7.16635 2.19493L7.34768 2.20887L7.41677 2.04064L7.18551 1.94567ZM7.18089 1.94531L7.20005 1.69605L7.00674 1.68119L6.94424 1.86472L7.18089 1.94531ZM5.63861 6.47414V6.72414H5.81757L5.87526 6.55473L5.63861 6.47414ZM3.13014 6.47414L3.10927 6.72326L3.11969 6.72414H3.13014V6.47414ZM3.0532 7.40433H3.3032V7.16472L3.06381 7.15455L3.0532 7.40433ZM3.0532 7.40583H2.8032V7.65583H3.0532V7.40583ZM6.42728 7.40583V7.65583H6.61346L6.6668 7.47745L6.42728 7.40583ZM7.49028 3.85086L7.73861 3.82206L7.25075 3.77924L7.49028 3.85086ZM8.1503 9.54216L8.40026 9.53735L8.40003 9.52532L8.39864 9.51336L8.1503 9.54216ZM9.18965 9.66553L8.95596 9.576L8.95247 9.58649L9.18965 9.66553ZM10.0554 7.40583V7.15583H9.88343L9.82192 7.31639L10.0554 7.40583ZM13.6479 7.40583V7.65583H13.8979V7.40583H13.6479ZM13.6479 7.40488V7.15488H13.3979V7.40488H13.6479ZM13.597 6.47414V6.72414H13.6075L13.6179 6.72326L13.597 6.47414ZM9.29434 6.47414V6.22414H9.10083L9.05232 6.41148L9.29434 6.47414ZM8.79682 8.39573L8.54786 8.41849L9.03884 8.4584L8.79682 8.39573ZM8.21449 2.02474L8.46345 2.00198L8.44423 1.79166L8.23365 1.77547L8.21449 2.02474ZM8.20711 2.02417L7.9618 2.07236L7.99844 2.25888L8.18796 2.27344L8.20711 2.02417ZM7.41677 2.04064C7.44759 1.96559 7.54407 1.8877 7.6845 1.8877V1.3877C7.3656 1.3877 7.07094 1.56655 6.95425 1.8507L7.41677 2.04064ZM7.16174 2.19458L7.16635 2.19493L7.20466 1.6964L7.20005 1.69605L7.16174 2.19458ZM5.87526 6.55473L7.41755 2.02591L6.94424 1.86472L5.40196 6.39355L5.87526 6.55473ZM3.13014 6.72414H5.63861V6.22414H3.13014V6.72414ZM3.07921 6.72201C3.08942 6.72201 3.09944 6.72244 3.10927 6.72326L3.15101 6.22501C3.12731 6.22302 3.10336 6.22201 3.07921 6.22201V6.72201ZM2.79883 6.93845C2.79883 6.84813 2.89321 6.72201 3.07921 6.72201V6.22201C2.67936 6.22201 2.29883 6.51356 2.29883 6.93845H2.79883ZM3.06381 7.15455C2.88695 7.14704 2.79883 7.02646 2.79883 6.93845H2.29883C2.29883 7.35031 2.65777 7.63776 3.04259 7.6541L3.06381 7.15455ZM3.3032 7.40583V7.40433H2.8032V7.40583H3.3032ZM6.42728 7.15583H3.0532V7.65583H6.42728V7.15583ZM7.25075 3.77924L6.18776 7.33421L6.6668 7.47745L7.7298 3.92248L7.25075 3.77924ZM8.39864 9.51336L7.73861 3.82206L7.24194 3.87966L7.90197 9.57096L8.39864 9.51336ZM8.68061 9.75055C8.49693 9.75055 8.40198 9.62692 8.40026 9.53735L7.90035 9.54697C7.9084 9.96519 8.28456 10.2505 8.68061 10.2505V9.75055ZM8.95247 9.58649C8.92643 9.66463 8.82884 9.75055 8.68061 9.75055V10.2505C9.01445 10.2505 9.32382 10.0537 9.42682 9.74457L8.95247 9.58649ZM9.82192 7.31639L8.95619 9.57609L9.4231 9.75497L10.2888 7.49527L9.82192 7.31639ZM13.6479 7.15583H10.0554V7.65583H13.6479V7.15583ZM13.3979 7.40488V7.40583H13.8979V7.40488H13.3979ZM13.648 7.15488C13.648 7.15488 13.648 7.15488 13.648 7.15488H13.648C13.648 7.15488 13.648 7.15488 13.648 7.15488C13.648 7.15488 13.648 7.15488 13.648 7.15488C13.648 7.15488 13.648 7.15488 13.648 7.15488C13.648 7.15488 13.648 7.15488 13.648 7.15488H13.648C13.648 7.15488 13.648 7.15488 13.648 7.15488C13.648 7.15488 13.648 7.15488 13.648 7.15488H13.648C13.648 7.15488 13.648 7.15488 13.648 7.15488C13.648 7.15488 13.648 7.15488 13.648 7.15488C13.648 7.15488 13.648 7.15488 13.648 7.15488C13.648 7.15488 13.648 7.15488 13.648 7.15488H13.648C13.648 7.15488 13.648 7.15488 13.6479 7.15488C13.6479 7.15488 13.6479 7.15488 13.6479 7.15488H13.6479C13.6479 7.15488 13.6479 7.15488 13.6479 7.15488C13.6479 7.15488 13.6479 7.15488 13.6479 7.15488C13.6479 7.15488 13.6479 7.15488 13.6479 7.15488C13.6479 7.15488 13.6479 7.15488 13.6479 7.15488H13.6479C13.6479 7.15488 13.6479 7.15488 13.6479 7.15488C13.6479 7.15488 13.6479 7.15488 13.6479 7.15488H13.6479C13.6479 7.15488 13.6479 7.15488 13.6479 7.15488H13.6479C13.6479 7.15488 13.6479 7.15488 13.6479 7.15488C13.6479 7.15488 13.6479 7.15488 13.6479 7.15488H13.6479C13.6479 7.15488 13.6479 7.15488 13.6479 7.15488C13.6479 7.15488 13.6479 7.15488 13.6479 7.15488H13.6479C13.6479 7.15488 13.6479 7.15488 13.6479 7.15488H13.6479C13.6479 7.15488 13.6479 7.15488 13.6479 7.15488C13.6479 7.15488 13.6479 7.15488 13.6479 7.15488H13.6479C13.6479 7.15488 13.6479 7.15488 13.6479 7.15488C13.6479 7.15488 13.6479 7.15488 13.6479 7.15488H13.6479C13.6479 7.15488 13.6479 7.15488 13.6479 7.15488H13.6479C13.6479 7.15488 13.6479 7.15488 13.6479 7.15488C13.6479 7.15488 13.6479 7.15488 13.6479 7.15488H13.6479C13.6479 7.15488 13.6479 7.15488 13.6479 7.15488C13.6479 7.15488 13.6479 7.15488 13.6479 7.15488H13.6479C13.6479 7.15488 13.6479 7.15488 13.6479 7.15488H13.6479C13.6479 7.15488 13.6479 7.15488 13.6479 7.15488C13.6479 7.15488 13.6479 7.15488 13.6479 7.15488H13.6479C13.6479 7.15488 13.6479 7.15488 13.6479 7.15488C13.6479 7.15488 13.6479 7.15488 13.6479 7.15488H13.6479C13.6479 7.15488 13.6479 7.15488 13.6479 7.15488H13.6479C13.6479 7.15488 13.6479 7.15488 13.6479 7.15488C13.6479 7.15488 13.6479 7.15488 13.6479 7.15488H13.6479C13.6479 7.15488 13.6479 7.15488 13.6479 7.15488C13.6479 7.15488 13.6479 7.15488 13.6479 7.15488H13.6479C13.6479 7.15488 13.6479 7.15488 13.6479 7.15488H13.6479C13.6479 7.15488 13.6479 7.15488 13.6479 7.15488C13.6479 7.15488 13.6479 7.15488 13.6479 7.15488H13.6479C13.6479 7.15488 13.6479 7.15488 13.6479 7.15488C13.6479 7.15488 13.6479 7.15488 13.6479 7.15488H13.6479C13.6479 7.15488 13.6479 7.15488 13.6479 7.15488H13.6479C13.6479 7.15488 13.6479 7.15488 13.6479 7.15488C13.6479 7.15488 13.6479 7.15488 13.6479 7.15488H13.6479C13.6479 7.15488 13.6479 7.15488 13.6479 7.15488C13.6479 7.15488 13.6479 7.15488 13.6479 7.15488H13.6479C13.6479 7.15488 13.6479 7.15488 13.6479 7.15488H13.6479C13.6479 7.15488 13.6479 7.15488 13.6479 7.15488C13.6479 7.15488 13.6479 7.15488 13.6479 7.15488H13.6479C13.6479 7.15488 13.6479 7.15488 13.6479 7.15488C13.6479 7.15488 13.6479 7.15488 13.6479 7.15488H13.6479C13.6479 7.15488 13.6479 7.15488 13.6479 7.15488H13.6479C13.6479 7.15488 13.6479 7.15488 13.6479 7.15488C13.6479 7.15488 13.6479 7.15488 13.6479 7.15488H13.6479C13.6479 7.15488 13.6479 7.15488 13.6479 7.15488C13.6479 7.15488 13.6479 7.15488 13.6479 7.15488H13.6479C13.6479 7.15488 13.6479 7.15488 13.6479 7.15488H13.6479C13.6479 7.15488 13.6479 7.15488 13.6479 7.15488C13.6479 7.15488 13.6479 7.15488 13.6479 7.15488H13.6479C13.6479 7.15488 13.6479 7.15488 13.6479 7.15488C13.6479 7.15488 13.6479 7.15488 13.6479 7.15488C13.6479 7.15488 13.6479 7.15488 13.6479 7.15488C13.6479 7.15488 13.6479 7.15488 13.6479 7.15488H13.6479C13.6479 7.15488 13.6479 7.15488 13.6479 7.15488C13.6479 7.15488 13.6479 7.15488 13.6479 7.15488H13.6479C13.6479 7.15488 13.6479 7.15488 13.6479 7.15488C13.6479 7.15488 13.6479 7.15488 13.6479 7.15488C13.6479 7.15488 13.6479 7.15488 13.6479 7.15488C13.6479 7.15488 13.6479 7.15488 13.6479 7.15488H13.6479C13.6479 7.15488 13.6479 7.15488 13.6479 7.15488V7.65488C13.6479 7.65488 13.6479 7.65488 13.6479 7.65488H13.6479C13.6479 7.65488 13.6479 7.65488 13.6479 7.65488C13.6479 7.65488 13.6479 7.65488 13.6479 7.65488C13.6479 7.65488 13.6479 7.65488 13.6479 7.65488C13.6479 7.65488 13.6479 7.65488 13.6479 7.65488H13.6479C13.6479 7.65488 13.6479 7.65488 13.6479 7.65488C13.6479 7.65488 13.6479 7.65488 13.6479 7.65488H13.6479C13.6479 7.65488 13.6479 7.65488 13.6479 7.65488C13.6479 7.65488 13.6479 7.65488 13.6479 7.65488C13.6479 7.65488 13.6479 7.65488 13.6479 7.65488C13.6479 7.65488 13.6479 7.65488 13.6479 7.65488H13.6479C13.6479 7.65488 13.6479 7.65488 13.6479 7.65488C13.6479 7.65488 13.6479 7.65488 13.6479 7.65488H13.6479C13.6479 7.65488 13.6479 7.65488 13.6479 7.65488H13.6479C13.6479 7.65488 13.6479 7.65488 13.6479 7.65488C13.6479 7.65488 13.6479 7.65488 13.6479 7.65488H13.6479C13.6479 7.65488 13.6479 7.65488 13.6479 7.65488C13.6479 7.65488 13.6479 7.65488 13.6479 7.65488H13.6479C13.6479 7.65488 13.6479 7.65488 13.6479 7.65488H13.6479C13.6479 7.65488 13.6479 7.65488 13.6479 7.65488C13.6479 7.65488 13.6479 7.65488 13.6479 7.65488H13.6479C13.6479 7.65488 13.6479 7.65488 13.6479 7.65488C13.6479 7.65488 13.6479 7.65488 13.6479 7.65488H13.6479C13.6479 7.65488 13.6479 7.65488 13.6479 7.65488H13.6479C13.6479 7.65488 13.6479 7.65488 13.6479 7.65488C13.6479 7.65488 13.6479 7.65488 13.6479 7.65488H13.6479C13.6479 7.65488 13.6479 7.65488 13.6479 7.65488C13.6479 7.65488 13.6479 7.65488 13.6479 7.65488H13.6479C13.6479 7.65488 13.6479 7.65488 13.6479 7.65488H13.6479C13.6479 7.65488 13.6479 7.65488 13.6479 7.65488C13.6479 7.65488 13.6479 7.65488 13.6479 7.65488H13.6479C13.6479 7.65488 13.6479 7.65488 13.6479 7.65488C13.6479 7.65488 13.6479 7.65488 13.6479 7.65488H13.6479C13.6479 7.65488 13.6479 7.65488 13.6479 7.65488H13.6479C13.6479 7.65488 13.6479 7.65488 13.6479 7.65488C13.6479 7.65488 13.6479 7.65488 13.6479 7.65488H13.6479C13.6479 7.65488 13.6479 7.65488 13.6479 7.65488C13.6479 7.65488 13.6479 7.65488 13.6479 7.65488H13.6479C13.6479 7.65488 13.6479 7.65488 13.6479 7.65488H13.6479C13.6479 7.65488 13.6479 7.65488 13.6479 7.65488C13.6479 7.65488 13.6479 7.65488 13.6479 7.65488H13.6479C13.6479 7.65488 13.6479 7.65488 13.6479 7.65488C13.6479 7.65488 13.6479 7.65488 13.6479 7.65488H13.6479C13.6479 7.65488 13.6479 7.65488 13.6479 7.65488H13.6479C13.6479 7.65488 13.6479 7.65488 13.6479 7.65488C13.6479 7.65488 13.6479 7.65488 13.6479 7.65488H13.6479C13.6479 7.65488 13.6479 7.65488 13.6479 7.65488C13.6479 7.65488 13.6479 7.65488 13.6479 7.65488H13.6479C13.6479 7.65488 13.6479 7.65488 13.6479 7.65488H13.6479C13.6479 7.65488 13.6479 7.65488 13.6479 7.65488C13.6479 7.65488 13.6479 7.65488 13.6479 7.65488H13.6479C13.6479 7.65488 13.6479 7.65488 13.6479 7.65488C13.6479 7.65488 13.6479 7.65488 13.6479 7.65488H13.6479C13.6479 7.65488 13.6479 7.65488 13.6479 7.65488H13.6479C13.6479 7.65488 13.6479 7.65488 13.6479 7.65488C13.6479 7.65488 13.6479 7.65488 13.6479 7.65488H13.6479C13.6479 7.65488 13.6479 7.65488 13.6479 7.65488C13.6479 7.65488 13.6479 7.65488 13.6479 7.65488H13.6479C13.6479 7.65488 13.6479 7.65488 13.6479 7.65488H13.6479C13.6479 7.65488 13.6479 7.65488 13.6479 7.65488C13.6479 7.65488 13.6479 7.65488 13.6479 7.65488H13.6479C13.6479 7.65488 13.6479 7.65488 13.6479 7.65488C13.6479 7.65488 13.6479 7.65488 13.6479 7.65488C13.6479 7.65488 13.6479 7.65488 13.6479 7.65488C13.6479 7.65488 13.6479 7.65488 13.6479 7.65488H13.6479C13.6479 7.65488 13.6479 7.65488 13.6479 7.65488C13.648 7.65488 13.648 7.65488 13.648 7.65488H13.648C13.648 7.65488 13.648 7.65488 13.648 7.65488C13.648 7.65488 13.648 7.65488 13.648 7.65488C13.648 7.65488 13.648 7.65488 13.648 7.65488C13.648 7.65488 13.648 7.65488 13.648 7.65488H13.648C13.648 7.65488 13.648 7.65488 13.648 7.65488C13.648 7.65488 13.648 7.65488 13.648 7.65488H13.648C13.648 7.65488 13.648 7.65488 13.648 7.65488C13.648 7.65488 13.648 7.65488 13.648 7.65488C13.648 7.65488 13.648 7.65488 13.648 7.65488C13.648 7.65488 13.648 7.65488 13.648 7.65488H13.648C13.648 7.65488 13.648 7.65488 13.648 7.65488V7.15488ZM13.9283 6.93845C13.9283 7.02877 13.834 7.15488 13.648 7.15488V7.65488C14.0478 7.65488 14.4283 7.36333 14.4283 6.93845H13.9283ZM13.648 6.72201C13.834 6.72201 13.9283 6.84813 13.9283 6.93845H14.4283C14.4283 6.51356 14.0478 6.22201 13.648 6.22201V6.72201ZM13.6179 6.72326C13.6277 6.72244 13.6378 6.72201 13.648 6.72201V6.22201C13.6238 6.22201 13.5999 6.22302 13.5762 6.22501L13.6179 6.72326ZM9.29434 6.72414H13.597V6.22414H9.29434V6.72414ZM9.03884 8.4584L9.53636 6.5368L9.05232 6.41148L8.5548 8.33307L9.03884 8.4584ZM7.96553 2.0475L8.54786 8.41849L9.04578 8.37298L8.46345 2.00198L7.96553 2.0475ZM8.18796 2.27344L8.19534 2.27401L8.23365 1.77547L8.22627 1.77491L8.18796 2.27344ZM7.6845 1.8877C7.84751 1.8877 7.94547 1.98919 7.9618 2.07236L8.45243 1.97599C8.38253 1.62014 8.04533 1.3877 7.6845 1.3877V1.8877Z" fill="#1B2535" mask="url(#path-3-outside-1_1064_38)"/>
</svg>
