<svg width="19" height="18" viewBox="0 0 19 18" fill="none" xmlns="http://www.w3.org/2000/svg">
<path d="M4.71875 13.75H4.1875C2.72072 13.75 1.53125 12.5605 1.53125 11.0938C1.53125 9.62697 2.72072 8.4375 4.1875 8.4375H4.71875V13.75Z" fill="white" stroke="white" stroke-width="1.5" stroke-miterlimit="10" stroke-linejoin="round"/>
<path d="M14.8125 13.75H14.2812V8.4375H14.8125C16.2793 8.4375 17.4688 9.62697 17.4688 11.0938C17.4688 12.5605 16.2793 13.75 14.8125 13.75Z" fill="white" stroke="white" stroke-width="1.5" stroke-miterlimit="10" stroke-linejoin="round"/>
<path d="M3.65625 8.4375V6.84375C3.65625 3.61641 6.27266 1 9.5 1C12.7273 1 15.3438 3.61641 15.3438 6.84375V8.4375" stroke="white" stroke-width="1.5" stroke-miterlimit="10" stroke-linejoin="round"/>
<path d="M15.3438 13.75V15.875C15.3438 16.462 14.8683 16.9375 14.2812 16.9375H12" stroke="white" stroke-width="1.5" stroke-miterlimit="10" stroke-linejoin="round"/>
<path d="M9.5625 16.9375H11.0625" stroke="white" stroke-width="1.5" stroke-miterlimit="10" stroke-linejoin="round"/>
</svg>
