<svg width="38" height="38" viewBox="0 0 38 38" fill="none" xmlns="http://www.w3.org/2000/svg">
<rect width="38" height="38" rx="19" fill="#1B2535"/>
<path d="M23.345 21.255C23.345 21.785 23.21 22.26 22.94 22.68C22.67 23.09 22.305 23.415 21.845 23.655C21.395 23.885 20.9 24 20.36 24H15.335V13.35H20.465C20.965 13.35 21.395 13.485 21.755 13.755C22.125 14.015 22.405 14.355 22.595 14.775C22.795 15.185 22.895 15.615 22.895 16.065C22.895 16.595 22.76 17.085 22.49 17.535C22.22 17.985 21.845 18.32 21.365 18.54C21.975 18.72 22.455 19.055 22.805 19.545C23.165 20.035 23.345 20.605 23.345 21.255ZM22.295 21.075C22.295 20.715 22.215 20.385 22.055 20.085C21.895 19.775 21.675 19.525 21.395 19.335C21.125 19.145 20.815 19.05 20.465 19.05H16.385V23.085H20.36C20.72 23.085 21.045 22.99 21.335 22.8C21.625 22.61 21.855 22.365 22.025 22.065C22.205 21.755 22.295 21.425 22.295 21.075ZM16.385 14.265V18.195H20.045C20.395 18.195 20.705 18.105 20.975 17.925C21.245 17.735 21.46 17.49 21.62 17.19C21.78 16.89 21.86 16.57 21.86 16.23C21.86 15.87 21.785 15.545 21.635 15.255C21.485 14.955 21.28 14.715 21.02 14.535C20.76 14.355 20.465 14.265 20.135 14.265H16.385Z" fill="white"/>
</svg>
