<svg width="16" height="16" viewBox="0 0 16 16" fill="none" xmlns="http://www.w3.org/2000/svg">
<path fill-rule="evenodd" clip-rule="evenodd" d="M10.9252 9.44213L12.0185 10.5341C12.1364 10.6523 12.3033 10.7078 12.4685 10.6845C13.1028 10.5944 13.7708 10.7928 14.2583 11.28C14.4848 11.5063 14.649 11.7714 14.7507 12.0543L13.9273 11.4784C13.7164 11.331 13.4298 11.3562 13.2476 11.5382L11.5353 13.2488C11.3528 13.431 11.3276 13.7182 11.4756 13.9293L12.0509 14.7506C11.768 14.6492 11.5021 14.485 11.2756 14.2587C10.7881 13.7716 10.5897 13.1048 10.6795 12.4713C10.7031 12.3058 10.6474 12.1388 10.5291 12.0208L8.47002 9.96355C8.26257 9.75637 7.92602 9.75663 7.71883 9.96409C7.51165 10.1713 7.51165 10.5081 7.7191 10.7153L9.60079 12.5954C9.55324 13.4632 9.8611 14.3474 10.5246 15.0102C11.2575 15.7425 12.261 16.0413 13.2146 15.9061C13.3974 15.8804 13.5538 15.7614 13.6274 15.5919C13.701 15.4224 13.6811 15.2269 13.5753 15.0755L12.6018 13.6852L13.6837 12.6044L15.0759 13.5774C15.2273 13.6834 15.4228 13.7028 15.592 13.6292C15.7614 13.5556 15.8804 13.3994 15.9062 13.2167C16.0417 12.2639 15.7426 11.2609 15.0094 10.5283C14.3459 9.86554 13.4611 9.55795 12.5923 9.60549L11.6761 8.69041C11.4689 8.48323 11.1321 8.48349 10.9249 8.69068C10.7177 8.89813 10.7177 9.23495 10.9252 9.44213Z" fill="white"/>
<path fill-rule="evenodd" clip-rule="evenodd" d="M6.16788 7.66355L1.37574 2.87566C0.958441 2.45889 0.958441 1.78288 1.37574 1.36611L1.376 1.36584C1.57044 1.17167 1.83394 1.0625 2.1086 1.0625C2.38352 1.0625 2.64702 1.17167 2.84146 1.36584L6.59872 5.11966C6.80618 5.32684 7.14272 5.32658 7.35018 5.11913C7.55736 4.91194 7.5571 4.57513 7.34964 4.36794L3.59238 0.614125C3.19899 0.221 2.66508 0 2.1086 0C1.55211 0 1.01847 0.221 0.625082 0.614125L0.624551 0.614391C-0.208184 1.44633 -0.208184 2.79544 0.624551 3.62738L5.41669 8.415C5.62414 8.62245 5.96096 8.62219 6.16814 8.41474C6.37533 8.20728 6.37507 7.87074 6.16788 7.66355Z" fill="white"/>
<path fill-rule="evenodd" clip-rule="evenodd" d="M7.34283 7.94722L2.7005 12.5853C2.1812 12.3425 1.5437 12.4352 1.11498 12.8637C0.682547 13.2956 0.181047 13.7965 0.181047 13.7965C0.0814375 13.8964 0.0253906 14.0316 0.0253906 14.1724C0.0253906 14.3135 0.0814375 14.4487 0.181047 14.5483L1.41328 15.7794C1.62073 15.9866 1.95675 15.9866 2.1642 15.7794C2.1642 15.7794 2.6657 15.2785 3.09814 14.8463C3.49844 14.4465 3.60602 13.8648 3.42114 13.367L8.09455 8.69814L8.83909 9.44216C9.04655 9.64934 9.38256 9.64934 9.59002 9.44216C9.59002 9.44216 13.3635 5.67214 15.3015 3.736C16.1278 2.91017 16.1278 1.57169 15.3015 0.746125L15.3012 0.745594C14.9046 0.349547 14.3667 0.126953 13.806 0.126953C13.245 0.126953 12.7074 0.349547 12.3108 0.745594C10.3728 2.68173 6.59881 6.45228 6.59881 6.45228C6.4992 6.55189 6.44316 6.68709 6.44316 6.82814C6.44316 6.96919 6.4992 7.10439 6.59881 7.204L7.34283 7.94722Z" fill="white"/>
</svg>
