<svg width="74" height="74" viewBox="0 0 74 74" fill="none" xmlns="http://www.w3.org/2000/svg">
<g filter="url(#filter0_d_1003_409)">
<rect x="15" y="15" width="44" height="44" rx="22" fill="white"/>
</g>
<path d="M38.2985 43.1104H35.6249C35.0902 43.1104 34.6319 43.7215 34.9374 44.2562C35.3958 44.9437 36.1597 45.402 36.9999 45.402C37.8402 45.402 38.6041 44.9437 38.986 44.2562C39.2916 43.7215 38.9097 43.1104 38.2985 43.1104Z" fill="#1B2535"/>
<path d="M44.4865 40.5898L44.181 40.2079C42.9587 38.6037 42.3476 36.694 42.3476 34.7079V34.1731C42.3476 31.4231 40.3615 28.9787 37.6115 28.6731C34.4032 28.2912 31.6532 30.812 31.6532 33.944V34.7079C31.6532 36.694 31.0421 38.6037 29.8198 40.2079L29.5143 40.5898C29.3615 40.7426 29.2851 41.0481 29.3615 41.2009C29.5907 41.8884 30.2018 42.3467 30.8893 42.3467H43.1115C43.799 42.3467 44.4101 41.8884 44.5629 41.2009C44.6393 40.9717 44.5629 40.7426 44.4865 40.5898Z" fill="#1B2535"/>
<defs>
<filter id="filter0_d_1003_409" x="0" y="0" width="74" height="74" filterUnits="userSpaceOnUse" color-interpolation-filters="sRGB">
<feFlood flood-opacity="0" result="BackgroundImageFix"/>
<feColorMatrix in="SourceAlpha" type="matrix" values="0 0 0 0 0 0 0 0 0 0 0 0 0 0 0 0 0 0 127 0" result="hardAlpha"/>
<feOffset/>
<feGaussianBlur stdDeviation="7.5"/>
<feComposite in2="hardAlpha" operator="out"/>
<feColorMatrix type="matrix" values="0 0 0 0 0.858547 0 0 0 0 0.904821 0 0 0 0 0.896788 0 0 0 1 0"/>
<feBlend mode="normal" in2="BackgroundImageFix" result="effect1_dropShadow_1003_409"/>
<feBlend mode="normal" in="SourceGraphic" in2="effect1_dropShadow_1003_409" result="shape"/>
</filter>
</defs>
</svg>
