<svg width="31" height="29" viewBox="0 0 31 29" fill="none" xmlns="http://www.w3.org/2000/svg">
<path d="M29.6831 21.4378L19.5081 3.24609C18.7372 1.70443 17.1956 0.933594 15.4997 0.933594C13.8039 0.933594 12.2622 1.70443 11.4914 3.24609L1.31641 21.4378C0.545573 22.8253 0.545573 24.6753 1.31641 26.0628C2.08724 27.4503 3.62891 28.3753 5.32474 28.3753H25.6747C27.3706 28.3753 28.7581 27.4503 29.6831 26.0628C30.6081 24.6753 30.4539 22.9794 29.6831 21.4378ZM27.0622 24.5211C26.9081 24.6753 26.5997 25.2919 25.6747 25.2919H5.32474C4.55391 25.2919 4.09141 24.8294 3.93724 24.5211C3.78307 24.2128 3.47474 23.7503 3.93724 22.9794L14.1122 4.63359C14.5747 3.86276 15.1914 3.86276 15.4997 3.86276C15.8081 3.86276 16.4247 3.86276 16.8872 4.63359L27.0622 22.9794C27.3706 23.7503 27.0622 24.3669 27.0622 24.5211Z" fill="#FF6B00"/>
<path d="M15.5007 9.875C14.5757 9.875 13.959 10.4917 13.959 11.4167V16.0417C13.959 16.9667 14.5757 17.5833 15.5007 17.5833C16.4257 17.5833 17.0423 16.9667 17.0423 16.0417V11.4167C17.0423 10.4917 16.4257 9.875 15.5007 9.875Z" fill="#FF6B00"/>
<path d="M15.5007 22.2083C16.3521 22.2083 17.0423 21.5181 17.0423 20.6667C17.0423 19.8152 16.3521 19.125 15.5007 19.125C14.6492 19.125 13.959 19.8152 13.959 20.6667C13.959 21.5181 14.6492 22.2083 15.5007 22.2083Z" fill="#FF6B00"/>
</svg>
