<svg width="25" height="26" viewBox="0 0 25 26" fill="none" xmlns="http://www.w3.org/2000/svg">
<path d="M25 10.4999C25 10.7499 24.87 11 24.61 11.25L19.1562 16.4999L20.4475 24.1249C20.4575 24.1249 20.4625 24.25 20.4625 24.375C20.4625 24.625 20.4075 24.7499 20.2975 24.8749C20.1975 24.9999 20.0475 25.125 19.8463 25.125C19.6563 25.125 19.4562 25.125 19.2463 25L12.5 21.375L5.75425 25C5.53388 25.125 5.3335 25.125 5.15325 25.125C4.94287 25.125 4.78262 24.9999 4.6725 24.8749C4.57225 24.7499 4.52225 24.625 4.52225 24.375C4.52225 24.375 4.53225 24.2499 4.55225 24.1249L5.84437 16.4999L0.375625 11.25C0.12525 11 0 10.7499 0 10.4999C0 10.1249 0.2805 9.87488 0.841375 9.87488L8.38338 8.75L11.7638 1.875C11.9538 1.5 12.2 1.25 12.5 1.25C12.8 1.25 13.0462 1.5 13.2362 1.875L16.6163 8.75L24.1587 9.87488C24.72 9.87488 25 10.1249 25 10.4999Z" fill="#E67E22"/>
<path d="M25 9.24988C25 9.49988 24.87 9.75 24.61 10L19.1562 15.2499L20.4475 22.8749C20.4575 22.8749 20.4625 23 20.4625 23.125C20.4625 23.375 20.4075 23.4999 20.2975 23.6249C20.1975 23.7499 20.0475 23.875 19.8463 23.875C19.6563 23.875 19.4562 23.875 19.2463 23.75L12.5 20.125L5.75425 23.75C5.53388 23.875 5.3335 23.875 5.15325 23.875C4.94287 23.875 4.78262 23.7499 4.6725 23.6249C4.57225 23.4999 4.52225 23.375 4.52225 23.125C4.52225 23.125 4.53225 22.9999 4.55225 22.8749L5.84437 15.2499L0.375625 10C0.12525 9.75 0 9.49988 0 9.24988C0 8.87488 0.2805 8.62488 0.841375 8.62488L8.38338 7.5L11.7638 0.625C11.9538 0.25 12.2 0 12.5 0C12.8 0 13.0462 0.25 13.2362 0.625L16.6163 7.5L24.1587 8.62488C24.72 8.62488 25 8.87488 25 9.24988Z" fill="#FFCC00"/>
</svg>
