<svg width="15" height="16" viewBox="0 0 15 16" fill="none" xmlns="http://www.w3.org/2000/svg">
<path fill-rule="evenodd" clip-rule="evenodd" d="M12.6667 1.58333H2C1.63181 1.58333 1.33333 1.93778 1.33333 2.375V13.4583C1.33333 13.8956 1.63181 14.25 2 14.25H12.6667C13.0349 14.25 13.3333 13.8956 13.3333 13.4583V2.375C13.3333 1.93777 13.0349 1.58333 12.6667 1.58333ZM2 0C0.895433 0 0 1.06333 0 2.375V13.4583C0 14.77 0.895433 15.8333 2 15.8333H12.6667C13.7713 15.8333 14.6667 14.77 14.6667 13.4583V2.375C14.6667 1.06333 13.7713 0 12.6667 0H2ZM3.33333 3.95833H4.66667V5.54167H3.33333V3.95833ZM6.66667 3.95833C6.29847 3.95833 6 4.31278 6 4.75C6 5.18722 6.29847 5.54167 6.66667 5.54167H10.6667C11.0349 5.54167 11.3333 5.18722 11.3333 4.75C11.3333 4.31278 11.0349 3.95833 10.6667 3.95833H6.66667ZM4.66667 7.125H3.33333V8.70833H4.66667V7.125ZM6 7.91667C6 7.47943 6.29847 7.125 6.66667 7.125H10.6667C11.0349 7.125 11.3333 7.47943 11.3333 7.91667C11.3333 8.3539 11.0349 8.70833 10.6667 8.70833H6.66667C6.29847 8.70833 6 8.3539 6 7.91667ZM4.66667 10.2917H3.33333V11.875H4.66667V10.2917ZM6 11.0833C6 10.6461 6.29847 10.2917 6.66667 10.2917H10.6667C11.0349 10.2917 11.3333 10.6461 11.3333 11.0833C11.3333 11.5206 11.0349 11.875 10.6667 11.875H6.66667C6.29847 11.875 6 11.5206 6 11.0833Z" fill="#FFFBF4"/>
</svg>
