<svg width="16" height="16" viewBox="0 0 16 16" fill="none" xmlns="http://www.w3.org/2000/svg">
<path d="M15.3313 0H0.481248C0.206248 0 0 0.206248 0 0.481248V12.3406C0 12.6156 0.206248 12.8219 0.481248 12.8219H2.92188V15.8125L5.5 12.8562H15.2969C15.5719 12.8562 15.7781 12.65 15.7781 12.375V0.481248C15.8125 0.206248 15.6063 0 15.3313 0ZM7.90625 4.95C8.6625 4.95 9.28125 5.56875 9.28125 6.325C9.28125 7.08125 8.6625 7.7 7.90625 7.7C7.15 7.7 6.53125 7.08125 6.53125 6.325C6.53125 5.56875 7.15 4.95 7.90625 4.95ZM4.57188 4.95C5.32813 4.95 5.94688 5.56875 5.94688 6.325C5.94688 7.08125 5.32813 7.7 4.57188 7.7C3.81563 7.7 3.19688 7.08125 3.19688 6.325C3.19688 5.56875 3.81563 4.95 4.57188 4.95ZM11.2406 7.66563C10.4844 7.66563 9.86562 7.04688 9.86562 6.29063C9.86562 5.53438 10.4844 4.91563 11.2406 4.91563C11.9969 4.91563 12.6156 5.53438 12.6156 6.29063C12.6156 7.04688 11.9969 7.66563 11.2406 7.66563Z" fill="#FFFBF4"/>
</svg>
