<svg width="74" height="74" viewBox="0 0 74 74" fill="none" xmlns="http://www.w3.org/2000/svg">
<g filter="url(#filter0_d_1003_399)">
<rect x="15" y="15" width="44" height="44" rx="22" fill="white"/>
</g>
<g clip-path="url(#clip0_1003_399)">
<path d="M34.9375 29.4375H30.8125C30.0531 29.4375 29.4375 30.0531 29.4375 30.8125V34.9375C29.4375 35.6969 30.0531 36.3125 30.8125 36.3125H34.9375C35.6969 36.3125 36.3125 35.6969 36.3125 34.9375V30.8125C36.3125 30.0531 35.6969 29.4375 34.9375 29.4375Z" fill="#1B2535"/>
<path d="M34.9375 37.6875H30.8125C30.0531 37.6875 29.4375 38.3031 29.4375 39.0625V43.1875C29.4375 43.9469 30.0531 44.5625 30.8125 44.5625H34.9375C35.6969 44.5625 36.3125 43.9469 36.3125 43.1875V39.0625C36.3125 38.3031 35.6969 37.6875 34.9375 37.6875Z" fill="#1B2535"/>
<path d="M43.1875 29.4375H39.0625C38.3031 29.4375 37.6875 30.0531 37.6875 30.8125V34.9375C37.6875 35.6969 38.3031 36.3125 39.0625 36.3125H43.1875C43.9469 36.3125 44.5625 35.6969 44.5625 34.9375V30.8125C44.5625 30.0531 43.9469 29.4375 43.1875 29.4375Z" fill="#1B2535"/>
<path d="M38.375 41.8125C38.5573 41.8125 38.7322 41.7401 38.8611 41.6111C38.9901 41.4822 39.0625 41.3073 39.0625 41.125V38.375C39.0625 38.1927 38.9901 38.0178 38.8611 37.8889C38.7322 37.7599 38.5573 37.6875 38.375 37.6875C38.1927 37.6875 38.0178 37.7599 37.8889 37.8889C37.7599 38.0178 37.6875 38.1927 37.6875 38.375V41.125C37.6875 41.3073 37.7599 41.4822 37.8889 41.6111C38.0178 41.7401 38.1927 41.8125 38.375 41.8125Z" fill="#1B2535"/>
<path d="M43.875 39.0625H41.8125V38.375C41.8125 38.1927 41.7401 38.0178 41.6111 37.8889C41.4822 37.7599 41.3073 37.6875 41.125 37.6875C40.9427 37.6875 40.7678 37.7599 40.6389 37.8889C40.5099 38.0178 40.4375 38.1927 40.4375 38.375V43.1875H38.375C38.1927 43.1875 38.0178 43.2599 37.8889 43.3889C37.7599 43.5178 37.6875 43.6927 37.6875 43.875C37.6875 44.0573 37.7599 44.2322 37.8889 44.3611C38.0178 44.4901 38.1927 44.5625 38.375 44.5625H41.125C41.3073 44.5625 41.4822 44.4901 41.6111 44.3611C41.7401 44.2322 41.8125 44.0573 41.8125 43.875V40.4375H43.875C44.0573 40.4375 44.2322 40.3651 44.3611 40.2361C44.4901 40.1072 44.5625 39.9323 44.5625 39.75C44.5625 39.5677 44.4901 39.3928 44.3611 39.2639C44.2322 39.1349 44.0573 39.0625 43.875 39.0625Z" fill="#1B2535"/>
<path d="M43.875 41.8125C43.6927 41.8125 43.5178 41.8849 43.3889 42.0139C43.2599 42.1428 43.1875 42.3177 43.1875 42.5V43.875C43.1875 44.0573 43.2599 44.2322 43.3889 44.3611C43.5178 44.4901 43.6927 44.5625 43.875 44.5625C44.0573 44.5625 44.2322 44.4901 44.3611 44.3611C44.4901 44.2322 44.5625 44.0573 44.5625 43.875V42.5C44.5625 42.3177 44.4901 42.1428 44.3611 42.0139C44.2322 41.8849 44.0573 41.8125 43.875 41.8125Z" fill="#1B2535"/>
</g>
<defs>
<filter id="filter0_d_1003_399" x="0" y="0" width="74" height="74" filterUnits="userSpaceOnUse" color-interpolation-filters="sRGB">
<feFlood flood-opacity="0" result="BackgroundImageFix"/>
<feColorMatrix in="SourceAlpha" type="matrix" values="0 0 0 0 0 0 0 0 0 0 0 0 0 0 0 0 0 0 127 0" result="hardAlpha"/>
<feOffset/>
<feGaussianBlur stdDeviation="7.5"/>
<feComposite in2="hardAlpha" operator="out"/>
<feColorMatrix type="matrix" values="0 0 0 0 0.858547 0 0 0 0 0.904821 0 0 0 0 0.896788 0 0 0 1 0"/>
<feBlend mode="normal" in2="BackgroundImageFix" result="effect1_dropShadow_1003_399"/>
<feBlend mode="normal" in="SourceGraphic" in2="effect1_dropShadow_1003_399" result="shape"/>
</filter>
<clipPath id="clip0_1003_399">
<rect width="22" height="22" fill="white" transform="translate(26 26)"/>
</clipPath>
</defs>
</svg>
