<svg width="16" height="16" viewBox="0 0 16 16" fill="none" xmlns="http://www.w3.org/2000/svg">
<path d="M15.455 6.44062L14.0631 5.97666C13.9684 5.68889 13.8535 5.4082 13.7191 5.13672L14.399 3.83281C14.473 3.68283 14.4982 3.51342 14.4709 3.34841C14.4437 3.1834 14.3654 3.03108 14.247 2.91288L13.0871 1.77696C12.9717 1.65467 12.8207 1.57185 12.6556 1.54025C12.4905 1.50866 12.3196 1.52991 12.1672 1.60097L10.8633 2.25692C10.5918 2.12253 10.3111 2.00758 10.0233 1.91295L9.59937 0.545049C9.54372 0.379476 9.43539 0.236672 9.29095 0.138449C9.1465 0.0402261 8.97387 -0.00801708 8.79943 0.00108789H7.19955C7.03185 0.00065499 6.86825 0.0529393 6.73188 0.150551C6.59551 0.248162 6.49327 0.386163 6.4396 0.545049L5.97564 1.93695C5.68787 2.03158 5.40718 2.14653 5.1357 2.28092L3.83179 1.60097C3.68181 1.52696 3.5124 1.50181 3.34739 1.52908C3.18238 1.55634 3.03006 1.63464 2.91186 1.75296L1.77594 2.91288C1.65365 3.02827 1.57083 3.17925 1.53924 3.34439C1.50764 3.50954 1.52889 3.68043 1.59995 3.83281L2.25591 5.13672C2.12151 5.4082 2.00657 5.68889 1.91193 5.97666L0.520032 6.44062C0.365632 6.49829 0.232815 6.60225 0.139744 6.73828C0.046673 6.87431 -0.00210862 7.03576 6.99141e-05 7.20057V8.80045C-0.000362984 8.96815 0.0519213 9.13175 0.149533 9.26812C0.247144 9.40449 0.385145 9.50673 0.544031 9.5604L1.93593 10.0244C2.03056 10.3121 2.14551 10.5928 2.2799 10.8643L1.59995 12.1682C1.52594 12.3182 1.5008 12.4876 1.52806 12.6526C1.55532 12.8176 1.63362 12.9699 1.75194 13.0881L2.88786 14.2241C3.00496 14.3516 3.16028 14.4377 3.33049 14.4694C3.50069 14.5012 3.6766 14.4768 3.83179 14.4L5.1357 13.7441C5.40718 13.8785 5.68787 13.9934 5.97564 14.0881L6.4396 15.48C6.49728 15.6344 6.60123 15.7672 6.73726 15.8603C6.87329 15.9533 7.03474 16.0021 7.19955 15.9999H8.79943C8.96714 16.0004 9.13073 15.9481 9.2671 15.8505C9.40347 15.7529 9.50571 15.6149 9.55938 15.456L10.0233 14.0641C10.3111 13.9694 10.5918 13.8545 10.8633 13.7201L12.1672 14.376C12.3172 14.4501 12.4866 14.4752 12.6516 14.4479C12.8166 14.4207 12.9689 14.3424 13.0871 14.2241L14.223 13.0881C14.3453 12.9728 14.4282 12.8218 14.4597 12.6566C14.4913 12.4915 14.4701 12.3206 14.399 12.1682L13.7431 10.8643C13.8775 10.5928 13.9924 10.3121 14.0871 10.0244L15.455 9.60039C15.6205 9.54473 15.7633 9.43641 15.8615 9.29196C15.9598 9.14752 16.008 8.97489 15.9989 8.80045V7.20057C15.9993 7.03286 15.9471 6.86927 15.8494 6.7329C15.7518 6.59653 15.6138 6.49429 15.455 6.44062ZM7.99949 11.2003C7.36664 11.2003 6.74799 11.0126 6.2218 10.661C5.6956 10.3094 5.28547 9.80969 5.04329 9.22501C4.80111 8.64033 4.73774 7.99696 4.8612 7.37627C4.98467 6.75557 5.28942 6.18543 5.73691 5.73793C6.18441 5.29043 6.75455 4.98569 7.37525 4.86222C7.99594 4.73876 8.63931 4.80212 9.22399 5.04431C9.80867 5.28649 10.3084 5.69661 10.66 6.22281C11.0116 6.74901 11.1993 7.36765 11.1993 8.00051C11.1993 8.84914 10.8621 9.66301 10.2621 10.2631C9.662 10.8632 8.84812 11.2003 7.99949 11.2003Z" fill="white"/>
</svg>
