<svg width="18" height="18" viewBox="0 0 18 18" fill="none" xmlns="http://www.w3.org/2000/svg">
<path d="M11.1161 7.61523C11.8592 7.61523 12.4617 8.33847 12.4617 9.23062V12.2306H12.4586V13.1537H5.53857V10.3845H5.54006V9.23062C5.54006 8.33847 6.14248 7.61523 6.88561 7.61523H11.1161Z" fill="#FFFBF4"/>
<path d="M16.6153 9.23123C16.6153 8.33922 15.9803 7.6161 15.197 7.6161L12.4614 7.61523C12.78 8.05422 12.9714 8.61721 12.9714 9.23123V10.3849H12.9682V13.1537H16.0074C16.3431 13.1537 16.6153 12.8438 16.6153 12.4615V9.23123Z" fill="#FFFBF4"/>
<path d="M5.02758 12.2308H5.02914V9.23123L5.03614 9.02856C5.07321 8.49363 5.25573 8.00539 5.53861 7.61523L2.80142 7.6161L2.68523 7.62146C1.95718 7.68883 1.38477 8.3838 1.38477 9.23123V12.4615C1.38477 12.8438 1.65659 13.1537 1.9919 13.1537H5.02758V12.2308Z" fill="#FFFBF4"/>
<path d="M9 2.25C10.2427 2.25 11.25 3.25736 11.25 4.5C11.25 5.74264 10.2427 6.75 9 6.75C7.75732 6.75 6.75 5.74264 6.75 4.5C6.75 3.25736 7.75732 2.25 9 2.25Z" fill="#FFFBF4"/>
<path d="M13.875 3C14.9105 3 15.75 3.83947 15.75 4.875C15.75 5.91053 14.9105 6.75 13.875 6.75C12.8395 6.75 12 5.91053 12 4.875C12 3.83947 12.8395 3 13.875 3Z" fill="#FFFBF4"/>
<path d="M4.125 3C5.16053 3 6 3.83947 6 4.875C6 5.91053 5.16053 6.75 4.125 6.75C3.08947 6.75 2.25 5.91053 2.25 4.875C2.25 3.83947 3.08947 3 4.125 3Z" fill="#FFFBF4"/>
<rect x="1.38477" y="15.2305" width="15.2308" height="2.07692" rx="1.03846" fill="white"/>
</svg>
